# AST/ASF file generated using VICON BodyLanguage
# -----------------------------------------------
:version 1.10
:name VICON
:units
  mass 1.0
  length 0.45
  angle deg
:documentation
   .ast/.asf automatically generated from VICON data using
   VICON BodyBuilder and BodyLanguage model FoxedUp or BRILLIANT.MOD
:root
   order TX TY TZ RX RY RZ
   axis XYZ
   position 0 0 0  
   orientation 0 -0 0 
:bonedata
  begin
     id 1 
     name lhipjoint
     direction 0.500677 -0.737119 0.453848 
     length 2.34727 
     axis 0 -0 0  XYZ
  end
  begin
     id 2 
     name lfemur
     direction 0.34202 -0.939693 0  
     length 7.53653  
     axis 0 -0 20  XYZ
    dof rx ry rz
    limits (-160.0 20.0)
           (-70.0 70.0)
           (-60.0 70.0)
  end
  begin
     id 3 
     name ltibia
     direction 0.34202 -0.939693 0   
     length 6.85572   
     axis 0 -0 20   XYZ
    dof rx
    limits (-10.0 170.0)
  end
  begin
     id 4 
     name lfoot
     direction 0.155313 -0.426718 0.890949   
     length 2.18324   
     axis -90 -1.13533e-015 20   XYZ
    dof rx rz
    limits (-45.0 90.0)
           (-70.0 20.0)
  end
  begin
     id 5 
     name ltoes
     direction 1.53474e-011 -4.21647e-011 1   
     length 1.06748   
     axis -90 -1.13533e-015 20   XYZ
    dof rx
    limits (-90.0 20.0)
  end
  begin
     id 6 
     name rhipjoint
     direction -0.632471 -0.659587 0.406111   
     length 2.62319  
     axis 0 -0 0  XYZ 
  end
  begin
     id 7 
     name rfemur
     direction -0.34202 -0.939693 0   
     length 7.21735   
     axis 0 -0 -20   XYZ
    dof rx ry rz
    limits (-160.0 20.0)
           (-70.0 70.0)
           (-70.0 60.0)
  end
  begin
     id 8 
     name rtibia
     direction -0.34202 -0.939693 0   
     length 7.02558   
     axis 0 -0 -20   XYZ
    dof rx
    limits (-10.0 170.0)
 end
 begin
     id 9 
     name rfoot
     direction -0.16057 -0.441164 0.882945   
     length 2.10014  
     axis -90 1.13533e-015 -20   XYZ
    dof rx rz
    limits (-45.0 90.0)
           (-20.0 70.0)
  end
  begin
     id 10 
     name rtoes
     direction -1.53553e-011 -4.2192e-011 1   
     length 1.02554   
     axis -90 1.13533e-015 -20   XYZ
    dof rx
    limits (-90.0 20.0)
  end
  begin
     id 11 
     name lowerback
     direction 0.0401429 0.998861 -0.0258085   
     length 1.80848   
     axis 0 -0 0   XYZ
    dof rx ry rz
    limits (-20.0 45.0)
           (-30.0 30.0)
           (-30.0 30.0)
  end
  begin
     id 12 
     name upperback
     direction -0.0130978 0.999914 -0.000352645   
     length 1.8116   
     axis 0 -0 0   XYZ
    dof rx ry rz
    limits (-20.0 45.0)
           (-30.0 30.0)
           (-30.0 30.0)
  end
  begin
     id 13 
     name thorax
     direction -0.0300198 0.999453 0.0138573   
     length 1.81778   
     axis 0 -0 0   XYZ
    dof rx ry rz
    limits (-20.0 45.0)
           (-30.0 30.0)
           (-30.0 30.0)
  end
  begin
     id 14 
     name lowerneck
     direction -0.0401726 0.999191 -0.00173647   
     length 2.10594   
     axis 0 -0 0   XYZ
    dof rx ry rz
    limits (-20.0 45.0)
           (-30.0 30.0)
           (-30.0 30.0)
  end
  begin
     id 15 
     name upperneck
     direction 0.0119835 0.998501 0.0534085   
     length 2.07325   
     axis 0 -0 0   XYZ
    dof rx ry rz
    limits (-20.0 45.0)
           (-30.0 30.0)
           (-30.0 30.0)
  end
  begin
     id 16
     name head
     direction 0.00628309 0.999826 0.0175921  
     length 2.15096  
     axis 0 -0 0   XYZ
    dof rx ry rz
    limits (-20.0 45.0)
           (-30.0 30.0)
           (-30.0 30.0)
  end
  begin
     id 17 
     name lclavicle
     direction 0.895501 0.429681 -0.115981  
     length 4.18092  
     axis 0 -0 0   XYZ
    dof ry rz
    limits (-20.0 10.0)
           (0.0 20.0)
  end
  begin
     id 18 
     name lhumerus
     direction 1 -4.48961e-011 -3.38433e-028   
     length 5.77237   
     axis 180 -30 -90   XYZ
    dof rx ry rz
    limits (-60.0 90.0)
           (-90.0 90.0)
           (-90.0 90.0)
  end
  begin
     id 19
     name lradius
     direction 1 -4.4901e-011 1.11983e-026   
     length 2.91878   
     axis 180 -30 -90   XYZ
    dof rx
    limits (-10.0 170.0)
  end
  begin
     id 20
     name lwrist
     direction 1 -4.48934e-011 1.88176e-026   
     length 1.45939   
     axis -1.23311e-014 90 90   XYZ
    dof ry
    limits (-180.0 0.0)
 end
  begin
     id 21 
     name lhand
     direction 1 -4.4895e-011 3.76352e-026   
     length 1.06566   
     axis -2.40147e-014 90 90   XYZ
    dof rx rz
    limits (-90.0 90.0)
           (-45.0 45.0)
  end
  begin
     id 22 
     name lfingers
     direction 1 -4.49005e-011 7.52705e-026   
     length 0.859162   
     axis -4.80295e-014 90 90   XYZ
    dof rx
    limits (0.0 90.0)
  end
  begin
     id 23
     name lthumb
     direction 0.707107 -6.34885e-011 0.707107   
     length 1.23359   
     axis -90 45 -9.86935e-015   XYZ
    dof rx rz
    limits (-45.0 45.0)
           (-45.0 45.0)
  end
  begin
     id 24 
     name rclavicle
     direction -0.91006 0.40451 -0.0903492   
     length 4.23293  
     axis 0 -0 0   XYZ 
    dof ry rz
    limits (-10.0 20.0)
           (-20.0 0.0)
  end
  begin
     id 25 
     name rhumerus
     direction -1 -4.4897e-011 1.7415e-027  
     length 5.49854   
     axis 180 30 90   XYZ
    dof rx ry rz
    limits (-90.0 60.0)
           (-90.0 90.0)
           (-90.0 90.0)
  end
  begin
     id 26 
     name rradius
     direction -1 -4.48963e-011 1.21259e-026   
     length 3.1186   
     axis 180 30 90   XYZ
    dof rx
    limits (-10.0 170.0)
  end
  begin
     id 27 
     name rwrist
     direction -1 -4.48967e-011 1.88176e-026   
     length 1.5593   
     axis -1.23311e-014 -90 -90   XYZ
    dof ry
    limits (-180.0 0.0)
  end
  begin
     id 28
     name rhand
     direction -1 -4.4895e-011 3.76352e-026   
     length 0.71207   
     axis -2.40147e-014 -90 -90   XYZ
    dof rx rz
    limits (-90.0 90.0)
           (-45.0 45.0)
  end
  begin
     id 29
     name rfingers
     direction -1 -4.49005e-011 7.52705e-026   
     length 0.574089   
     axis -4.80295e-014 -90 -90   XYZ
    dof rx
    limits (0.0 90.0)
  end
  begin
     id 30
     name rthumb
     direction -0.707107 -6.34982e-011 0.707107   
     length 0.824281   
     axis -90 -45 9.86935e-015   XYZ
    dof rx rz
    limits (-45.0 45.0)
           (-45.0 45.0)
  end
:hierarchy
  begin
    root lhipjoint rhipjoint lowerback
    lhipjoint lfemur
    lfemur ltibia
    ltibia lfoot
    lfoot ltoes
    rhipjoint rfemur
    rfemur rtibia
    rtibia rfoot
    rfoot rtoes
    lowerback upperback
    upperback thorax
    thorax lowerneck lclavicle rclavicle
    lowerneck upperneck
    upperneck head
    lclavicle lhumerus
    lhumerus lradius
    lradius lwrist
    lwrist lhand lthumb
    lhand lfingers
    rclavicle rhumerus
    rhumerus rradius
    rradius rwrist
    rwrist rhand rthumb
    rhand rfingers
  end

#!OML:ASF C:\ViconDB\ViconDB\414\Spring2016\042216\male.ASF
:FULLY-SPECIFIED
:DEGREES
285
root 12.3761 23.6878 5.21677 -158.409 57.5561 -168.737
lowerback 24.1866 -4.63667 8.26946
upperback 4.2975 -3.65744 -1.77572
thorax -9.33898 -1.81701 -5.58483
lowerneck 3.19689 6.52169 -4.55639
upperneck -25.6203 10.1837 0.998062
head -8.80404 5.68703 0.146322
rclavicle 1.98785e-014 1.59028e-015
rhumerus -24.6782 10.1616 -90.9628
rradius 27.1851
rwrist 27.3278
rhand 15.6758 -20.7217
rfingers 7.12502
rthumb 40.4874 -45.7988
lclavicle 1.98785e-014 1.59028e-015
lhumerus -27.234 19.9808 78.4691
lradius 30.7958
lwrist -13.2586
lhand -10.7331 12.1827
lfingers 7.12502
lthumb 15.2776 41.5984
rfemur -65.2023 -17.3242 29.7822
rtibia 113.88
rfoot -8.72983 -11.0784
rtoes -4.78115
lfemur -61.6454 10.4841 -19.0013
ltibia 109.156
lfoot -15.2872 13.9605
ltoes -16.5159
286
root 12.5557 23.6304 5.11247 -158.02 57.662 -168.64
lowerback 23.3747 -4.4405 8.34456
upperback 4.14789 -3.49219 -1.82041
thorax -9.06171 -1.75316 -5.75218
lowerneck 3.34074 6.5325 -4.65632
upperneck -24.8853 10.0899 1.09538
head -8.58295 5.60736 0.219805
rclavicle 3.10104e-014 -5.32743e-014
rhumerus -27.8689 6.27107 -89.6511
rradius 26.567
rwrist 30.5209
rhand 15.7283 -20.4304
rfingers 7.12502
rthumb 40.5368 -45.4923
lclavicle 3.10104e-014 -5.32743e-014
lhumerus -30.3849 21.5533 77.3376
lradius 30.4856
lwrist -12.8842
lhand -10.4855 12.6162
lfingers 7.12502
lthumb 15.516 42.0137
rfemur -64.6053 -15.4836 30.0695
rtibia 109.01
rfoot -7.08958 -11.5707
rtoes -5.33143
lfemur -61.1136 9.64905 -18.7272
ltibia 103.938
lfoot -14.1559 13.6897
ltoes -17.0918
287
root 12.7466 23.5474 5.01079 -157.782 57.3155 -168.585
lowerback 22.5031 -4.40355 8.44243
upperback 3.98824 -3.52301 -1.75512
thorax -8.78716 -1.78022 -5.74505
lowerneck 3.40604 6.58671 -4.97957
upperneck -24.0237 10.0888 1.45548
head -8.33673 5.5654 0.411855
rclavicle -6.83819e-014 4.85035e-014
rhumerus -31.3022 2.83816 -88.0298
rradius 26.2287
rwrist 32.4605
rhand 15.1233 -20.3915
rfingers 7.12502
rthumb 39.9677 -45.6273
lclavicle -6.83819e-014 4.85035e-014
lhumerus -33.7167 23.1063 75.9538
lradius 30.1158
lwrist -12.9614
lhand -9.96059 12.8665
lfingers 7.12502
lthumb 16.0216 42.224
rfemur -63.4422 -14.3926 30.425
rtibia 103.876
rfoot -5.25549 -12.2562
rtoes -4.95059
lfemur -60.133 8.5781 -18.1509
ltibia 98.4311
lfoot -12.4677 13.1411
ltoes -17.6114
288
root 12.9499 23.4369 4.90871 -157.881 56.8102 -168.785
lowerback 21.6027 -4.38496 8.43737
upperback 3.83449 -3.60022 -1.65041
thorax -8.48656 -1.82364 -5.62341
lowerneck 3.63234 6.65379 -5.08377
upperneck -23.2134 10.027 1.41709
head -8.10407 5.5074 0.434922
rclavicle 1.19271e-014 1.90833e-014
rhumerus -34.9268 0.562194 -86.4219
rradius 26.2549
rwrist 32.1326
rhand 14.3165 -20.7671
rfingers 7.12502
rthumb 39.2078 -46.2272
lclavicle 1.19271e-014 1.90833e-014
lhumerus -37.2076 24.4651 74.4642
lradius 29.7595
lwrist -13.7353
lhand -9.57172 12.9596
lfingers 7.12502
lthumb 16.396 42.2866
rfemur -61.8416 -13.8399 30.6467
rtibia 98.5533
rfoot -3.10065 -12.671
rtoes -4.73891
lfemur -58.7466 7.46037 -17.5964
ltibia 92.7338
lfoot -10.6858 12.489
ltoes -17.909
289
root 13.149 23.2856 4.79383 -157.8 56.4992 -168.804
lowerback 20.6784 -4.35581 8.51563
upperback 3.67195 -3.64828 -1.54285
thorax -8.17917 -1.8561 -5.55908
lowerneck 3.75072 6.72169 -5.4009
upperneck -22.4481 9.99721 1.53064
head -7.89078 5.47381 0.540493
rclavicle -1.90833e-014 1.35174e-014
rhumerus -38.4994 -1.6119 -84.4118
rradius 26.5775
rwrist 30.8284
rhand 14.3097 -20.5646
rfingers 7.12502
rthumb 39.2015 -46.0266
lclavicle -1.90833e-014 1.35174e-014
lhumerus -41.0272 25.4353 72.8679
lradius 29.8927
lwrist -14.4281
lhand -9.05256 13.1363
lfingers 7.12502
lthumb 16.8958 42.4213
rfemur -60.1602 -13.3243 30.778
rtibia 93.0697
rfoot -0.786868 -12.8846
rtoes -4.75052
lfemur -57.299 6.5617 -17.0485
ltibia 86.9091
lfoot -8.65697 11.7462
ltoes -17.0506
290
root 13.3567 23.1118 4.67912 -157.858 56.1012 -168.838
lowerback 19.7889 -4.33355 8.58077
upperback 3.51678 -3.7027 -1.4209
thorax -7.87824 -1.88969 -5.47137
lowerneck 3.92785 6.80525 -5.79329
upperneck -21.643 9.99974 1.76265
head -7.68826 5.4483 0.690392
rclavicle 6.04305e-014 2.38542e-015
rhumerus -42.3777 -1.60769 -83.359
rradius 27.329
rwrist 27.3612
rhand 14.3402 -20.1047
rfingers 7.12502
rthumb 39.2303 -45.5584
lclavicle 6.04305e-014 2.38542e-015
lhumerus -44.5561 25.9003 71.4424
lradius 29.5528
lwrist -14.9002
lhand -8.28755 13.1497
lfingers 7.12502
lthumb 17.6321 42.3702
rfemur -58.1322 -13.1182 30.9581
rtibia 87.3794
rfoot 1.49224 -12.8738
rtoes -4.56183
lfemur -55.5396 5.86575 -16.5585
ltibia 80.9154
lfoot -6.25515 10.8651
ltoes -16.3244
291
root 13.5709 22.9085 4.56295 -157.855 55.6921 -168.83
lowerback 18.8222 -4.27704 8.68631
upperback 3.38334 -3.71733 -1.35162
thorax -7.50828 -1.90241 -5.48189
lowerneck 4.14207 6.84204 -5.9581
upperneck -21.007 9.95728 1.87939
head -7.52922 5.39969 0.764598
rclavicle -1.35174e-014 -5.00937e-014
rhumerus -46.1906 -2.33896 -81.9193
rradius 28.324
rwrist 24.5273
rhand 15.0636 -19.9648
rfingers 7.12502
rthumb 39.9115 -45.2174
lclavicle -1.35174e-014 -5.00937e-014
lhumerus -47.9502 26.0292 70.0631
lradius 29.4386
lwrist -15.4098
lhand -8.55416 13.1113
lfingers 7.12502
lthumb 17.3756 42.3547
rfemur -55.9989 -13.038 31.1637
rtibia 81.5247
rfoot 3.92566 -12.6867
rtoes -4.57463
lfemur -53.6817 5.2289 -16.0492
ltibia 74.8167
lfoot -3.92626 10.1339
ltoes -15.6429
292
root 13.7911 22.6806 4.4379 -157.977 55.4335 -168.95
lowerback 17.9131 -4.18908 8.66022
upperback 3.20928 -3.71769 -1.34327
thorax -7.20472 -1.91038 -5.48648
lowerneck 4.68082 6.88193 -5.82781
upperneck -20.6772 9.88976 1.69084
head -7.49662 5.34236 0.676067
rclavicle 5.32743e-014 -3.81667e-014
rhumerus -50.1016 -1.49345 -81.5367
rradius 29.5883
rwrist 20.2633
rhand 13.9196 -20.5887
rfingers 7.12502
rthumb 38.8337 -46.1561
lclavicle 5.32743e-014 -3.81667e-014
lhumerus -51.4589 25.6205 68.7899
lradius 29.8842
lwrist -15.35
lhand -7.88433 12.9945
lfingers 7.12502
lthumb 18.0201 42.1797
rfemur -53.7341 -13.0494 31.1821
rtibia 75.4989
rfoot 6.40588 -11.9171
rtoes -4.71122
lfemur -51.638 4.72195 -15.7245
ltibia 68.5407
lfoot -1.40917 9.63404
ltoes -15.6428
293
root 14.0197 22.4215 4.32072 -157.852 55.2165 -168.868
lowerback 17.0076 -4.08089 8.38383
upperback 3.03163 -3.72146 -1.17878
thorax -6.87863 -1.9105 -5.17846
lowerneck 5.17676 6.96636 -5.96013
upperneck -20.5004 9.89077 1.58096
head -7.52868 5.33682 0.645654
rclavicle 1.59028e-015 5.56597e-015
rhumerus -53.7384 -0.7295 -80.8573
rradius 30.912
rwrist 17.1488
rhand 13.1916 -20.5605
rfingers 7.12502
rthumb 38.1468 -46.3196
lclavicle 1.59028e-015 5.56597e-015
lhumerus -54.8584 25.2172 67.7154
lradius 30.3344
lwrist -15.4715
lhand -6.70905 12.3676
lfingers 7.12502
lthumb 19.1506 41.4447
rfemur -51.4863 -12.759 31.351
rtibia 69.3437
rfoot 8.85312 -11.4436
rtoes -4.98566
lfemur -49.6555 4.48274 -15.3113
ltibia 62.1583
lfoot 1.36549 9.28881
ltoes -15.5423
294
root 14.2626 22.1542 4.17192 -158.377 55.0108 -169.397
lowerback 15.578 -4.00003 8.24336
upperback 3.18676 -3.79379 -1.23858
thorax -5.93875 -1.91243 -5.20801
lowerneck 5.06431 6.9235 -6.1394
upperneck -20.0714 9.77018 1.56684
head -7.372 5.28095 0.695467
rclavicle 4.73108e-014 1.35174e-014
rhumerus -56.9924 0.471103 -80.708
rradius 32.2867
rwrist 14.6199
rhand 13.4074 -20.3651
rfingers 7.12502
rthumb 38.3505 -46.0681
lclavicle 4.73108e-014 1.35174e-014
lhumerus -57.7099 24.497 66.9891
lradius 30.9043
lwrist -15.7015
lhand -5.59469 11.4059
lfingers 7.12502
lthumb 20.2219 40.3733
rfemur -48.8645 -13.0849 31.0293
rtibia 62.9832
rfoot 11.3695 -10.1424
rtoes -4.79588
lfemur -47.1874 4.02478 -15.3952
ltibia 55.6265
lfoot 4.00378 9.32597
ltoes -16.0667
295
root 14.4939 21.8412 4.05391 -159.185 55.0199 -170.026
lowerback 15.3171 -3.93238 7.41739
upperback 2.94163 -3.86988 -1.16204
thorax -6.01386 -1.95319 -4.64487
lowerneck 5.65047 7.09726 -6.41861
upperneck -19.8449 9.85779 1.44705
head -7.41546 5.32307 0.674284
rclavicle -1.35174e-014 -7.95139e-016
rhumerus -60.4981 1.57478 -80.0425
rradius 33.6892
rwrist 13.3207
rhand 13.4288 -19.7027
rfingers 7.12502
rthumb 38.3707 -45.4001
lclavicle -1.35174e-014 -7.95139e-016
lhumerus -60.9236 23.3728 66.4668
lradius 31.5861
lwrist -14.9958
lhand -4.80147 10.9718
lfingers 7.12502
lthumb 20.9841 39.8566
rfemur -46.2447 -12.6872 30.4981
rtibia 56.6718
rfoot 13.9477 -9.4321
rtoes -4.56091
lfemur -44.7951 3.76934 -15.4734
ltibia 49.2777
lfoot 7.23151 9.45791
ltoes -14.5732
296
root 14.7547 21.5276 3.89479 -158.249 54.7815 -169.11
lowerback 13.9042 -3.84775 7.93731
upperback 2.67942 -3.8106 -0.907504
thorax -5.52709 -1.93984 -4.73266
lowerneck 6.47241 7.25136 -6.63723
upperneck -19.7321 9.89369 1.25218
head -7.52894 5.34022 0.611325
rclavicle 8.15017e-014 -3.57812e-014
rhumerus -64.0128 2.6341 -79.3684
rradius 35.072
rwrist 12.1073
rhand 12.7553 -19.3272
rfingers 7.12502
rthumb 37.7347 -45.1981
lclavicle 8.15017e-014 -3.57812e-014
lhumerus -64.0378 22.0074 66.3823
lradius 32.0788
lwrist -15.1911
lhand -5.48068 10.9992
lfingers 7.12502
lthumb 20.3315 39.955
rfemur -43.7341 -12.4007 30.9861
rtibia 50.1576
rfoot 16.2591 -8.27159
rtoes -4.50762
lfemur -42.8101 3.61864 -14.6077
ltibia 43.1344
lfoot 9.89324 10.0299
ltoes -12.6515
297
root 15.012 21.144 3.73855 -158.147 54.7026 -168.87
lowerback 12.9391 -3.78882 7.98461
upperback 2.5609 -3.8234 -0.822018
thorax -5.1213 -1.94549 -4.70563
lowerneck 6.58128 7.35048 -6.57294
upperneck -19.1382 9.91824 0.996517
head -7.33822 5.34462 0.528052
rclavicle 7.39479e-014 -6.36111e-015
rhumerus -67.2302 3.83449 -78.9707
rradius 36.4854
rwrist 10.2691
rhand 11.5533 -19.6346
rfingers 7.12502
rthumb 36.598 -45.8019
lclavicle 7.39479e-014 -6.36111e-015
lhumerus -66.6812 21.2266 66.0082
lradius 32.1836
lwrist -16.3372
lhand -6.19934 10.1185
lfingers 7.12502
lthumb 19.6407 39.1463
rfemur -41.2694 -12.1297 30.9737
rtibia 43.956
rfoot 18.2691 -7.15319
rtoes -3.8849
lfemur -40.9103 3.22232 -14.125
ltibia 37.5717
lfoot 12.8949 10.5755
ltoes -10.8353
298
root 15.2621 20.7993 3.59076 -158.002 54.5761 -168.531
lowerback 12.043 -3.75824 7.94096
upperback 2.46641 -3.8728 -0.653351
thorax -4.72001 -1.9645 -4.53175
lowerneck 6.57317 7.50272 -6.65216
upperneck -18.5207 10.0452 0.907307
head -7.14077 5.39676 0.516154
rclavicle -5.96354e-015 1.98785e-014
rhumerus -70.2571 4.78667 -78.1302
rradius 37.843
rwrist 8.29452
rhand 10.9458 -19.6668
rfingers 7.12502
rthumb 36.0229 -45.9777
lclavicle -5.96354e-015 1.98785e-014
lhumerus -69.3131 20.6344 65.6156
lradius 32.0066
lwrist -18.0728
lhand -7.8292 8.94307
lfingers 7.12502
lthumb 18.0732 38.1234
rfemur -38.8076 -12.0522 31.1454
rtibia 37.8295
rfoot 19.1586 -5.87687
rtoes -3.70311
lfemur -39.2762 2.51331 -13.4304
ltibia 32.7271
lfoot 14.9812 11.7693
ltoes -6.0935
299
root 15.5024 20.45 3.45172 -158.043 54.4146 -168.605
lowerback 11.2218 -3.73924 7.77675
upperback 2.33469 -3.951 -0.601128
thorax -4.40219 -2.00186 -4.40672
lowerneck 6.32604 7.59241 -6.59982
upperneck -17.8719 10.1269 0.794268
head -6.8818 5.42673 0.492454
rclavicle 9.30312e-014 -1.66979e-014
rhumerus -73.1962 5.56117 -77.2335
rradius 39.3321
rwrist 6.52638
rhand 10.5995 -20.1067
rfingers 7.12502
rthumb 35.6947 -46.4977
lclavicle 9.30312e-014 -1.66979e-014
lhumerus -71.5526 19.9942 65.2637
lradius 32.1663
lwrist -18.5158
lhand -8.1494 8.79804
lfingers 7.12502
lthumb 17.7651 38.0066
rfemur -36.9259 -12.0308 31.153
rtibia 32.3774
rfoot 19.0759 -4.59141
rtoes -3.52377
lfemur -38.2331 0.907225 -12.5644
ltibia 28.9074
lfoot 15.3606 13.0785
ltoes -3.64782
